
<svg xmlns="http://www.w3.org/2000/svg" viewBox="0 0 400 120" width="400" height="120">
  <defs>
    
  </defs>
  
  <rect x="1" y="1" width="398" height="118" fill="none" stroke="#1E4D6B" stroke-width="0.6"></rect>
  
  <line class="electric" x1="40" y1="100" x2="390" y2="100"></line>
  <line class="electric" x1="40" y1="10" x2="40" y2="100"></line>
  
  <g class="tick">
    <line x1="40" y1="25" x2="390" y2="25" stroke-dasharray="1 4"></line>
    <line x1="40" y1="55" x2="390" y2="55" stroke-dasharray="1 4"></line>
    <line x1="40" y1="80" x2="390" y2="80" stroke-dasharray="1 4"></line>
  </g>
  
  <path class="electric" d="M 40 80 L 70 60 L 100 70 L 130 35 L 160 50 L 190 28 L 220 40 L 250 22 L 280 48 L 310 38 L 340 58 L 370 45 L 390 62"></path>
  <path class="electric" d="M 40 92 L 70 88 L 100 90 L 130 72 L 160 84 L 190 70 L 220 82 L 250 68 L 280 86 L 310 78 L 340 90 L 370 82 L 390 88" opacity="0.5"></path>
  
  <text x="48" y="18" class="ghost">[SIGNAL // ERA 76-80]</text>
  <text x="382" y="18" class="steel" text-anchor="end">// RES: 0.312</text>
  
  <text x="36" y="104" class="steel" text-anchor="end">0</text>
  <text x="36" y="58" class="steel" text-anchor="end">.5</text>
  <text x="36" y="14" class="steel" text-anchor="end">1</text>
  <text x="215" y="114" class="steel" text-anchor="middle">t</text>
</svg>