
<svg xmlns="http://www.w3.org/2000/svg" viewBox="0 0 400 400" width="400" height="400">
  <g fill="none" stroke="#1C1410" stroke-width="1">
    <circle cx="200" cy="200" r="190"></circle>
    <circle cx="200" cy="200" r="178"></circle>
    <circle cx="200" cy="200" r="160" stroke-dasharray="1 6"></circle>
    <circle cx="200" cy="200" r="6"></circle>
  </g>
  <g fill="#1C1410" font-family="EB Garamond, serif" font-style="italic" font-size="22" text-anchor="middle">
    <text x="200" y="40">XII</text>
    <text x="370" y="208">III</text>
    <text x="200" y="378">VI</text>
    <text x="30" y="208">IX</text>
  </g>
  
  <g stroke="#1C1410" stroke-width="1">
    <g transform="translate(200 200)">
      <g id="tick"><line x1="0" y1="-190" x2="0" y2="-180"></line></g>
    </g>
    <g transform="translate(200 200)">
      <line x1="0" y1="-190" x2="0" y2="-180" transform="rotate(30)"></line>
      <line x1="0" y1="-190" x2="0" y2="-180" transform="rotate(60)"></line>
      <line x1="0" y1="-190" x2="0" y2="-180" transform="rotate(120)"></line>
      <line x1="0" y1="-190" x2="0" y2="-180" transform="rotate(150)"></line>
      <line x1="0" y1="-190" x2="0" y2="-180" transform="rotate(210)"></line>
      <line x1="0" y1="-190" x2="0" y2="-180" transform="rotate(240)"></line>
      <line x1="0" y1="-190" x2="0" y2="-180" transform="rotate(300)"></line>
      <line x1="0" y1="-190" x2="0" y2="-180" transform="rotate(330)"></line>
    </g>
  </g>
</svg>